<svg width="57" height="48" viewBox="0 0 57 48" fill="none" xmlns="http://www.w3.org/2000/svg">
<path fill-rule="evenodd" clip-rule="evenodd" d="M25.9 27.3C25.9 31.7 27.8 35.6 30.4 38.3C32.9 40.9 36.0001 42.3 39.1001 42.8C34.8001 46.1 30 47.6 24.6 47.6C11.5 47.6 0.800049 36.9 0.800049 23.8C0.800049 10.7 11.5 0 24.6 0C33.3 0 40.7001 4.1 45.1001 11.8C39.7001 10.6 34.6 12.2 30.9 15.6C27 19.4 25.9 23.8 25.9 27.3Z" fill="#1C74B8"/>
<path fill-rule="evenodd" clip-rule="evenodd" d="M41.7001 12.4C33.5001 12.4 26.9001 19 26.9001 27.2C26.9001 35.4 33.5001 42 41.7001 42C49.9001 42 56.5002 35.4 56.5002 27.2C56.6002 19 49.9001 12.4 41.7001 12.4Z" fill="#00BCD9"/>
</svg>
