<svg width="26" height="26" viewBox="0 0 26 26" fill="none" xmlns="http://www.w3.org/2000/svg">
<g clip-path="url(#clip0_339_8)">
<path d="M24.2188 13.1094C24.2188 19.7988 18.7988 25.2188 12.1094 25.2188C5.41992 25.2188 0 19.7988 0 13.1094C0 6.41992 5.41992 1 12.1094 1C18.7988 1 24.2188 6.41992 24.2188 13.1094ZM12.9395 18.6709L19.5557 12.0547C20.0146 11.5957 20.0146 10.8535 19.5557 10.3994L18.7256 9.56934C18.2666 9.11035 17.5244 9.11035 17.0703 9.56934L12.1094 14.5303L7.14844 9.56934C6.68945 9.11035 5.94727 9.11035 5.49316 9.56934L4.66309 10.3994C4.2041 10.8584 4.2041 11.6006 4.66309 12.0547L11.2793 18.6709C11.7383 19.1299 12.4805 19.1299 12.9395 18.6709Z" fill="white"/>
</g>
<defs>
<clipPath id="clip0_339_8">
<rect width="25" height="25" fill="white" transform="translate(0.0390625 0.352051)"/>
</clipPath>
</defs>
</svg>
