<svg width="23" height="21" viewBox="0 0 23 21" fill="none" xmlns="http://www.w3.org/2000/svg">
<path d="M1.18579 4.47168H21.4983C21.9298 4.47168 22.2795 4.12192 22.2795 3.69043V1.7373C22.2795 1.30581 21.9298 0.956055 21.4983 0.956055H1.18579C0.754297 0.956055 0.404541 1.30581 0.404541 1.7373V3.69043C0.404541 4.12192 0.754297 4.47168 1.18579 4.47168ZM1.18579 12.2842H21.4983C21.9298 12.2842 22.2795 11.9344 22.2795 11.5029V9.5498C22.2795 9.11831 21.9298 8.76855 21.4983 8.76855H1.18579C0.754297 8.76855 0.404541 9.11831 0.404541 9.5498V11.5029C0.404541 11.9344 0.754297 12.2842 1.18579 12.2842ZM1.18579 20.0967H21.4983C21.9298 20.0967 22.2795 19.7469 22.2795 19.3154V17.3623C22.2795 16.9308 21.9298 16.5811 21.4983 16.5811H1.18579C0.754297 16.5811 0.404541 16.9308 0.404541 17.3623V19.3154C0.404541 19.7469 0.754297 20.0967 1.18579 20.0967Z" fill="#0069BA"/>
</svg>
