<svg width="13" height="12" viewBox="0 0 13 12" fill="none" xmlns="http://www.w3.org/2000/svg">
<path d="M12.629 8.47996L9.78529 7.35496C9.66381 7.30717 9.5288 7.2971 9.40058 7.32627C9.27236 7.35544 9.15787 7.42226 9.07436 7.51668L7.81498 8.93699C5.83851 8.07679 4.2479 6.60854 3.31602 4.7841L4.85469 3.6216C4.95718 3.54465 5.02973 3.43897 5.06134 3.32056C5.09295 3.20215 5.08191 3.07745 5.02988 2.96535L3.81113 0.340354C3.75403 0.219512 3.65304 0.120849 3.52558 0.061377C3.39811 0.00190511 3.25216 -0.0146478 3.11289 0.0145726L0.472266 0.577073C0.337992 0.605694 0.218193 0.675482 0.132421 0.775045C0.046649 0.874609 -3.09311e-05 0.998069 1.53771e-08 1.12528C1.53771e-08 7.13699 5.27871 12.0003 11.7812 12.0003C11.9191 12.0004 12.0529 11.9573 12.1608 11.8781C12.2687 11.7989 12.3444 11.6883 12.3754 11.5643L12.9848 9.12684C13.0162 8.99765 12.9979 8.86239 12.933 8.74433C12.8681 8.62626 12.7606 8.53278 12.629 8.47996Z" fill="#00BCD9"/>
</svg>
