<svg width="19" height="19" viewBox="0 0 19 19" fill="none" xmlns="http://www.w3.org/2000/svg">
<g clip-path="url(#clip0_337_7)">
<path d="M18.4493 14.8695L13.0797 9.49995L18.4493 4.13036C19.1082 3.47147 19.1082 2.40277 18.4493 1.74388L17.2561 0.550633C16.5972 -0.10826 15.5285 -0.10826 14.8696 0.550633L9.5 5.92023L4.13041 0.550633C3.47151 -0.10826 2.40282 -0.10826 1.74392 0.550633L0.55068 1.74388C-0.108214 2.40277 -0.108214 3.47147 0.55068 4.13036L5.92027 9.49995L0.55068 14.8695C-0.108214 15.5284 -0.108214 16.5971 0.55068 17.256L1.74392 18.4493C2.40282 19.1082 3.47151 19.1082 4.13041 18.4493L9.5 13.0797L14.8696 18.4493C15.5285 19.1082 16.5972 19.1082 17.2561 18.4493L18.4493 17.256C19.1082 16.5971 19.1082 15.5284 18.4493 14.8695Z" fill="#1C74B8"/>
</g>
<defs>
<clipPath id="clip0_337_7">
<rect width="19" height="19" fill="white"/>
</clipPath>
</defs>
</svg>
